<?xml version="1.0" encoding="utf-8"?>
<!-- Generator: Adobe Illustrator 27.0.0, SVG Export Plug-In . SVG Version: 6.00 Build 0)  -->
<svg version="1.1" id="Layer_1" xmlns="http://www.w3.org/2000/svg" xmlns:xlink="http://www.w3.org/1999/xlink" x="0px" y="0px"
	 viewBox="0 0 566.9 566.9" style="enable-background:new 0 0 566.9 566.9;" xml:space="preserve">
<style type="text/css">
	.st0{fill:#FFFFFF;}
</style>
<path class="st0" d="M70.9,206.7h-26v113.1h27.6v-68.2l49.7,68.1v-44.5L70.9,206.7z"/>
<path class="st0" d="M144.3,206.7v23.3h29.5V230h59.7v-23.2H144.3z M144.3,253.1v20.1H170v0h46.9v-20.1H144.3z M144.3,296.6v23.2
	h89.2v-23.2H144.3z"/>
<g>
	<path class="st0" d="M454,184.3c-44.6,0-80.8,36.2-80.8,80.8s36.2,80.8,80.8,80.8s80.8-36.2,80.8-80.8S498.6,184.3,454,184.3z
		 M508.7,302.2c-0.5,4-1.8,7.9-3.9,11.5c-2.1,3.7-4.9,6.7-8,9.1c-3.3,2.5-7,4.3-11,5.4c-3.9,1-8.1,1.3-12.2,0.8
		c-4-0.5-7.9-1.8-11.5-3.9l-25-14.4c3.7-0.8,6.8-1.6,10.3-3.2c2.3-1,4.5-2.3,6.6-3.7l0.6-0.5l0.7,0.4l14.3,8.3h0
		c1.9,1.1,3.9,1.7,5.9,2c2.1,0.3,4.3,0.1,6.3-0.4c2-0.5,4-1.5,5.7-2.8c1.6-1.2,3.1-2.8,4.1-4.7h0c1.1-1.9,1.7-3.9,2-5.9
		c0.3-2.1,0.1-4.3-0.4-6.3c-0.5-2-1.5-4-2.8-5.7c-1.2-1.6-2.8-3-4.7-4.1l-13.6-7.8l-0.7-0.4l0.1-0.8c0-0.1,0-0.3,0.1-0.6l0.1-0.6
		v-15.3l1.9,1.1l15,8.7l0.6,0.4v0h0l4.1,2.4c3.7,2.1,6.7,4.9,9.1,8c2.5,3.3,4.3,7,5.4,11C508.9,294,509.2,298.1,508.7,302.2z
		 M509,270.5l-2.1-2.1c-1.2-1.2-2.6-2.4-4-3.4c-1.4-1-2.8-2-4.3-2.9l-4.1-2.4l-0.6-0.4v-14.9c0-2.2-0.4-4.2-1.2-6.1
		c-0.8-2-2-3.7-3.5-5.2c-2.9-2.9-6.9-4.7-11.4-4.7c-2.2,0-4.2,0.4-6.1,1.2c-2,0.8-3.7,2-5.2,3.5l0,0c-1.5,1.5-2.7,3.3-3.5,5.2
		c-0.8,1.9-1.2,4-1.2,6.1v25.2c0,4.2-0.9,8.2-2.4,11.9c-1.6,3.8-3.9,7.3-6.8,10.2c-2.9,2.9-6.3,5.2-10.1,6.8
		c-3.7,1.5-7.7,2.4-11.9,2.4c-4.2,0-8.2-0.8-11.9-2.4c-3.8-1.6-7.3-3.9-10.2-6.8c-2.9-2.9-5.2-6.3-6.8-10.2
		c-1.5-3.7-2.4-7.7-2.4-11.9v-53.1l1.9,1.1l12.7,7.3l0.6,0.4v15.3h0v29c0,2.2,0.4,4.2,1.2,6.1c0.8,2,2,3.8,3.5,5.2h0
		c1.5,1.5,3.3,2.7,5.2,3.5c1.9,0.8,4,1.2,6.1,1.2c2.2,0,4.2-0.4,6.1-1.2c2-0.8,3.8-2,5.2-3.5h0c1.5-1.5,2.7-3.3,3.5-5.2
		c0.8-1.9,1.2-4,1.2-6.1v-25.2c0-4.2,0.8-8.2,2.4-11.9c1.6-3.8,3.9-7.3,6.8-10.1c2.9-2.9,6.3-5.2,10.2-6.8c3.7-1.5,7.7-2.4,11.9-2.4
		c4.2,0,8.2,0.9,11.9,2.4c3.8,1.6,7.3,3.9,10.2,6.8s5.2,6.3,6.8,10.1c1.5,3.7,2.4,7.7,2.4,11.9V270.5z"/>
</g>
<polygon class="st0" points="328,262.5 367.2,319.9 335.2,319.9 311.4,286 287.6,319.9 255.6,319.9 294.7,262.3 255.6,206.7 
	289.9,206.7 311.3,237.9 332.4,206.7 367.3,206.7 "/>
<g>
	<path class="st0" d="M58.3,339.2c-0.7-0.8-1.8-1.3-3.1-1.5c1-0.2,1.9-0.7,2.5-1.4c0.6-0.7,0.9-1.7,0.9-2.7c0-1-0.2-1.8-0.7-2.5
		c-0.5-0.7-1.1-1.2-2-1.6s-2-0.5-3.2-0.5v0h-7.8v18.4h7.9c1.4,0,2.6-0.2,3.6-0.6s1.8-1,2.3-1.7c0.5-0.8,0.8-1.6,0.8-2.7
		C59.5,341.1,59.1,340,58.3,339.2z M47,330.8h5.5c1.2,0,2.2,0.2,2.9,0.8c0.7,0.5,1,1.3,1,2.3c0,1-0.3,1.8-1,2.3
		c-0.7,0.5-1.7,0.8-2.9,0.8v0H47V330.8z M56.1,344.7c-0.8,0.6-2,0.9-3.5,0.9H47v-6.8h5.5c1.5,0,2.7,0.3,3.5,0.9
		c0.8,0.6,1.2,1.4,1.2,2.5C57.3,343.2,56.9,344,56.1,344.7z"/>
	<path class="st0" d="M77,339.9c0,1.8,0.5,3.3,1.5,4.3c1,1,2.4,1.5,4.1,1.5s3.1-0.5,4.1-1.5s1.5-2.5,1.5-4.3v-10.9h2.1v10.9
		c0,1.6-0.3,3-0.9,4.1s-1.5,2-2.6,2.6c-1.2,0.6-2.5,0.9-4.1,0.9c-1.6,0-3-0.3-4.1-0.9c-1.2-0.6-2-1.5-2.7-2.6
		c-0.6-1.1-0.9-2.5-0.9-4.1v-10.9H77L77,339.9L77,339.9z"/>
	<path class="st0" d="M117.5,332.2c-0.5-0.4-1.1-0.7-1.7-0.9c-0.6-0.2-1.2-0.4-1.8-0.5s-1.1-0.2-1.6-0.2c-1.2,0-2.2,0.2-2.9,0.7
		s-1.1,1.1-1.1,2c0,0.7,0.2,1.3,0.6,1.7s0.9,0.8,1.5,1.1c0.6,0.3,1.3,0.5,2,0.8s1.5,0.5,2.2,0.7s1.4,0.6,2,1
		c0.6,0.4,1.1,0.9,1.5,1.5s0.6,1.4,0.6,2.4c0,1-0.3,1.9-0.8,2.6s-1.3,1.3-2.3,1.7s-2.2,0.6-3.5,0.6c-0.9,0-1.8-0.1-2.6-0.4
		s-1.7-0.6-2.4-1c-0.8-0.4-1.4-0.9-2-1.5l0.9-1.7c0.6,0.5,1.2,1,1.9,1.4c0.7,0.4,1.4,0.7,2.1,0.9c0.7,0.2,1.4,0.3,2.1,0.3
		c1.3,0,2.4-0.3,3.2-0.8c0.8-0.5,1.2-1.3,1.2-2.2c0-0.7-0.2-1.3-0.6-1.8c-0.4-0.5-0.9-0.8-1.5-1.1c-0.6-0.3-1.3-0.5-2-0.7
		s-1.5-0.4-2.2-0.7c-0.8-0.2-1.4-0.6-2-1s-1.1-0.9-1.5-1.5c-0.4-0.6-0.6-1.4-0.6-2.3c0-1,0.3-1.8,0.8-2.5s1.3-1.2,2.2-1.6
		c1-0.4,2.1-0.6,3.3-0.6c1.1,0,2.1,0.2,3.2,0.5c1,0.3,1.9,0.7,2.7,1.2L117.5,332.2z"/>
	<path class="st0" d="M134.7,328.9h2.1v18.4h-2.1V328.9z"/>
	<path class="st0" d="M154,328.9h2.2l11.6,16l-0.6,0.2v-16.1h2.1v18.4h-2.2l-11.6-15.9l0.6-0.2v16.1H154L154,328.9L154,328.9z"/>
	<path class="st0" d="M186.5,328.9H199v1.8h-10.4v6.3h9.3v1.8h-9.3v6.6h10.7v1.8h-12.8V328.9z"/>
	<path class="st0" d="M225.6,332.2c-0.5-0.4-1.1-0.7-1.7-0.9c-0.6-0.2-1.2-0.4-1.8-0.5c-0.6-0.1-1.1-0.2-1.6-0.2
		c-1.2,0-2.1,0.2-2.9,0.7s-1.1,1.1-1.1,2c0,0.7,0.2,1.3,0.6,1.7s0.9,0.8,1.5,1.1c0.6,0.3,1.3,0.5,2,0.8s1.5,0.5,2.2,0.7s1.4,0.6,2,1
		c0.6,0.4,1.1,0.9,1.5,1.5s0.6,1.4,0.6,2.4c0,1-0.3,1.9-0.8,2.6s-1.3,1.3-2.3,1.7s-2.2,0.6-3.5,0.6c-0.9,0-1.8-0.1-2.6-0.4
		s-1.7-0.6-2.4-1c-0.8-0.4-1.4-0.9-2-1.5l0.9-1.7c0.6,0.5,1.2,1,1.9,1.4s1.4,0.7,2.1,0.9c0.7,0.2,1.4,0.3,2.1,0.3
		c1.3,0,2.4-0.3,3.2-0.8c0.8-0.5,1.2-1.3,1.2-2.2c0-0.7-0.2-1.3-0.6-1.8c-0.4-0.5-0.9-0.8-1.5-1.1c-0.6-0.3-1.3-0.5-2-0.7
		s-1.5-0.4-2.2-0.7c-0.8-0.2-1.4-0.6-2-1s-1.1-0.9-1.5-1.5c-0.4-0.6-0.6-1.4-0.6-2.3c0-1,0.3-1.8,0.8-2.5s1.3-1.2,2.2-1.6
		c1-0.4,2.1-0.6,3.3-0.6c1.1,0,2.1,0.2,3.1,0.5c1,0.3,1.9,0.7,2.7,1.2L225.6,332.2z"/>
	<path class="st0" d="M253.3,332.2c-0.5-0.4-1.1-0.7-1.7-0.9c-0.6-0.2-1.2-0.4-1.8-0.5c-0.6-0.1-1.1-0.2-1.6-0.2
		c-1.2,0-2.1,0.2-2.9,0.7s-1.1,1.1-1.1,2c0,0.7,0.2,1.3,0.6,1.7s0.9,0.8,1.5,1.1c0.6,0.3,1.3,0.5,2,0.8s1.5,0.5,2.2,0.7s1.4,0.6,2,1
		c0.6,0.4,1.1,0.9,1.5,1.5c0.4,0.6,0.6,1.4,0.6,2.4c0,1-0.3,1.9-0.8,2.6s-1.3,1.3-2.3,1.7s-2.2,0.6-3.5,0.6c-0.9,0-1.8-0.1-2.6-0.4
		s-1.7-0.6-2.4-1c-0.8-0.4-1.4-0.9-2-1.5l0.9-1.7c0.6,0.5,1.2,1,1.9,1.4s1.4,0.7,2.1,0.9c0.7,0.2,1.4,0.3,2.1,0.3
		c1.3,0,2.4-0.3,3.2-0.8c0.8-0.5,1.2-1.3,1.2-2.2c0-0.7-0.2-1.3-0.6-1.8c-0.4-0.5-0.9-0.8-1.5-1.1c-0.6-0.3-1.3-0.5-2-0.7
		s-1.5-0.4-2.2-0.7c-0.8-0.2-1.4-0.6-2-1s-1.1-0.9-1.5-1.5c-0.4-0.6-0.6-1.4-0.6-2.3c0-1,0.3-1.8,0.8-2.5s1.3-1.2,2.2-1.6
		c1-0.4,2.1-0.6,3.3-0.6c1.1,0,2.1,0.2,3.1,0.5c1,0.3,1.9,0.7,2.7,1.2L253.3,332.2z"/>
	<path class="st0" d="M288.5,328.9h2.1v8.4h11.1v-8.4h2.1v18.4h-2.1v-8.2h-11.1v8.2h-2.1V328.9z"/>
	<path class="st0" d="M322.7,339.9c0,1.8,0.5,3.3,1.5,4.3c1,1,2.4,1.5,4.1,1.5s3.1-0.5,4.1-1.5s1.5-2.5,1.5-4.3v-10.9h2.1v10.9
		c0,1.6-0.3,3-0.9,4.1c-0.6,1.1-1.5,2-2.6,2.6c-1.1,0.6-2.5,0.9-4.1,0.9s-3-0.3-4.1-0.9c-1.2-0.6-2-1.5-2.7-2.6
		c-0.6-1.1-0.9-2.5-0.9-4.1v-10.9h2.1L322.7,339.9L322.7,339.9z"/>
	<path class="st0" d="M366.2,339.2c-0.7-0.8-1.8-1.3-3.1-1.5c1-0.2,1.9-0.7,2.5-1.4c0.6-0.7,0.9-1.7,0.9-2.7c0-1-0.2-1.8-0.7-2.5
		c-0.5-0.7-1.1-1.2-2-1.6s-2-0.5-3.2-0.5v0h-7.8v18.4h7.9c1.4,0,2.6-0.2,3.6-0.6s1.8-1,2.3-1.7c0.5-0.8,0.8-1.6,0.8-2.7
		C367.3,341.1,366.9,340,366.2,339.2z M354.8,330.8h5.5c1.2,0,2.2,0.2,2.9,0.8c0.7,0.5,1,1.3,1,2.3c0,1-0.3,1.8-1,2.3
		c-0.7,0.5-1.7,0.8-2.9,0.8v0h-5.5V330.8z M363.9,344.7c-0.8,0.6-2,0.9-3.5,0.9h-5.5v-6.8h5.5c1.5,0,2.7,0.3,3.5,0.9
		c0.8,0.6,1.2,1.4,1.2,2.5C365.1,343.2,364.7,344,363.9,344.7z"/>
</g>
<g>
	<path class="st0" d="M44.9,356.6h1.6v13.7h-1.6V356.6z"/>
	<path class="st0" d="M50.6,356.6h1.6l8.7,11.9l-0.4,0.1v-12h1.5v13.7h-1.6l-8.7-11.9l0.4-0.1v12h-1.6V356.6z"/>
	<path class="st0" d="M66.2,356.6h1.6l8.7,11.9l-0.4,0.1v-12h1.6v13.7h-1.6l-8.7-11.9l0.4-0.1v12h-1.6V356.6z"/>
	<path class="st0" d="M94.4,360.8c-0.4-0.8-0.9-1.6-1.5-2.2c-0.7-0.6-1.4-1.1-2.3-1.5c-0.9-0.4-1.8-0.5-2.8-0.5c-1,0-2,0.2-2.8,0.5
		c-0.9,0.3-1.6,0.8-2.3,1.5c-0.7,0.6-1.2,1.4-1.5,2.2c-0.4,0.8-0.6,1.8-0.6,2.7s0.2,1.9,0.6,2.7c0.4,0.9,0.9,1.6,1.5,2.2
		c0.7,0.6,1.4,1.1,2.3,1.5c0.9,0.4,1.8,0.5,2.8,0.5c1,0,1.9-0.2,2.8-0.5c0.9-0.4,1.6-0.9,2.3-1.5c0.7-0.6,1.2-1.4,1.5-2.2
		c0.4-0.8,0.6-1.8,0.6-2.7S94.8,361.6,94.4,360.8z M92.9,365.7c-0.3,0.7-0.7,1.3-1.2,1.8c-0.5,0.5-1.1,0.9-1.8,1.2
		c-0.7,0.3-1.4,0.4-2.2,0.4c-0.8,0-1.5-0.1-2.2-0.4c-0.7-0.3-1.3-0.7-1.8-1.2c-0.5-0.5-0.9-1.1-1.2-1.8c-0.3-0.7-0.4-1.4-0.4-2.2
		c0-0.8,0.1-1.5,0.4-2.2c0.3-0.7,0.7-1.3,1.2-1.8c0.5-0.5,1.1-0.9,1.8-1.2c0.7-0.3,1.4-0.4,2.2-0.4s1.5,0.1,2.2,0.4s1.3,0.7,1.8,1.2
		c0.5,0.5,0.9,1.1,1.2,1.8c0.3,0.7,0.4,1.4,0.4,2.2C93.3,364.3,93.2,365,92.9,365.7z"/>
	<path class="st0" d="M95.7,356.6h1.7l4.7,12.1l4.8-12.1h1.7l-5.6,13.7h-1.6L95.7,356.6z"/>
	<path class="st0" d="M115.5,356.7h-1.6l-6.2,13.7h1.7l1.5-3.6l0.6-1.3l3.1-7.2l3.2,7.2l0.6,1.3l1.6,3.6h1.7L115.5,356.7z
		 M110.4,365.5v1.3h8.3v-1.3H110.4z"/>
	<path class="st0" d="M120.6,356.6h10.5v1.4h-4.5v12.4H125V358h-4.5L120.6,356.6L120.6,356.6z"/>
	<path class="st0" d="M133.4,356.6h1.6v13.7h-1.6V356.6z"/>
	<path class="st0" d="M137.2,356.6h1.7l4.7,12.1l4.8-12.1h1.6l-5.6,13.7h-1.6L137.2,356.6z"/>
	<path class="st0" d="M152.2,356.6h9.3v1.4h-7.8v4.7h6.9v1.4h-6.9v5h8v1.4h-9.6V356.6z"/>
	<path class="st0" d="M182.3,359.1c-0.4-0.3-0.8-0.5-1.3-0.7c-0.4-0.2-0.9-0.3-1.3-0.4c-0.4-0.1-0.8-0.1-1.2-0.1
		c-0.9,0-1.6,0.2-2.1,0.5s-0.8,0.8-0.8,1.5c0,0.5,0.1,1,0.4,1.3s0.6,0.6,1.1,0.8s1,0.4,1.5,0.6c0.6,0.2,1.1,0.3,1.6,0.5
		c0.6,0.2,1.1,0.4,1.5,0.7c0.5,0.3,0.8,0.7,1.1,1.1c0.3,0.5,0.4,1.1,0.4,1.8c0,0.8-0.2,1.4-0.6,2c-0.4,0.6-1,1-1.8,1.3
		s-1.6,0.5-2.6,0.5c-0.7,0-1.3-0.1-2-0.3s-1.2-0.4-1.8-0.7c-0.6-0.3-1.1-0.7-1.5-1.1l0.7-1.3c0.4,0.4,0.9,0.8,1.4,1
		c0.5,0.3,1,0.5,1.6,0.7c0.5,0.2,1.1,0.2,1.6,0.2c1,0,1.8-0.2,2.4-0.6c0.6-0.4,0.9-1,0.9-1.6c0-0.5-0.1-1-0.4-1.3
		c-0.3-0.3-0.6-0.6-1.1-0.8c-0.5-0.2-1-0.4-1.5-0.5c-0.6-0.2-1.1-0.3-1.7-0.5s-1.1-0.4-1.5-0.7s-0.8-0.6-1.1-1.1
		c-0.3-0.5-0.4-1-0.4-1.8c0-0.7,0.2-1.3,0.6-1.9s0.9-0.9,1.7-1.2c0.7-0.3,1.6-0.4,2.5-0.4c0.8,0,1.6,0.1,2.4,0.4
		c0.8,0.2,1.4,0.5,2,0.9L182.3,359.1z"/>
	<path class="st0" d="M195.6,357.9c-0.9-0.8-2.3-1.2-4-1.2h-5.2v13.7h1.6V366h3.6c1.7,0,3-0.4,4-1.2c0.9-0.8,1.4-2,1.4-3.5
		C197,359.8,196.6,358.7,195.6,357.9z M194.5,363.8c-0.7,0.6-1.6,0.9-2.9,0.9v0h-3.5v0.7l-0.7-0.7h0.7V358h-0.7l0.7-0.7v0.7h3.5
		c1.2,0,2.2,0.3,2.9,0.8s1,1.4,1,2.4C195.5,362.4,195.2,363.2,194.5,363.8z"/>
	<path class="st0" d="M212.2,360.8c-0.4-0.8-0.9-1.6-1.5-2.2c-0.7-0.6-1.4-1.1-2.3-1.5c-0.9-0.4-1.8-0.5-2.8-0.5
		c-1,0-1.9,0.2-2.8,0.5c-0.9,0.3-1.6,0.8-2.3,1.5c-0.6,0.6-1.2,1.4-1.5,2.2c-0.4,0.8-0.6,1.8-0.6,2.7s0.2,1.9,0.6,2.7
		c0.4,0.9,0.9,1.6,1.5,2.2c0.7,0.6,1.4,1.1,2.3,1.5c0.9,0.4,1.8,0.5,2.8,0.5c1,0,1.9-0.2,2.8-0.5c0.9-0.4,1.6-0.9,2.3-1.5
		c0.7-0.6,1.2-1.4,1.5-2.2c0.4-0.8,0.6-1.8,0.6-2.7S212.5,361.6,212.2,360.8z M210.7,365.7c-0.3,0.7-0.7,1.3-1.2,1.8
		c-0.5,0.5-1.1,0.9-1.8,1.2c-0.7,0.3-1.4,0.4-2.2,0.4c-0.8,0-1.5-0.1-2.1-0.4c-0.7-0.3-1.3-0.7-1.8-1.2c-0.5-0.5-0.9-1.1-1.2-1.8
		c-0.3-0.7-0.4-1.4-0.4-2.2c0-0.8,0.2-1.5,0.4-2.2c0.3-0.7,0.7-1.3,1.2-1.8c0.5-0.5,1.1-0.9,1.8-1.2s1.4-0.4,2.2-0.4
		c0.8,0,1.5,0.1,2.2,0.4s1.3,0.7,1.8,1.2c0.5,0.5,0.9,1.1,1.2,1.8s0.4,1.4,0.4,2.2C211.1,364.3,211,365,210.7,365.7z"/>
	<path class="st0" d="M213.4,356.6H224v1.4h-4.5v12.4h-1.6V358h-4.5L213.4,356.6L213.4,356.6z"/>
	<path class="st0" d="M233.9,356.6h10.5v1.4H240v12.4h-1.6V358h-4.5L233.9,356.6L233.9,356.6z"/>
	<path class="st0" d="M258.5,360.8c-0.4-0.8-0.9-1.6-1.5-2.2c-0.7-0.6-1.4-1.1-2.3-1.5c-0.9-0.4-1.8-0.5-2.8-0.5
		c-1,0-1.9,0.2-2.8,0.5c-0.9,0.3-1.6,0.8-2.3,1.5c-0.6,0.6-1.2,1.4-1.5,2.2c-0.4,0.8-0.6,1.8-0.6,2.7s0.2,1.9,0.6,2.7
		c0.4,0.9,0.9,1.6,1.5,2.2c0.7,0.6,1.4,1.1,2.3,1.5c0.9,0.4,1.8,0.5,2.8,0.5c1,0,1.9-0.2,2.8-0.5c0.9-0.4,1.6-0.9,2.3-1.5
		c0.7-0.6,1.2-1.4,1.5-2.2c0.4-0.8,0.6-1.8,0.6-2.7S258.8,361.6,258.5,360.8z M257,365.7c-0.3,0.7-0.7,1.3-1.2,1.8
		c-0.5,0.5-1.1,0.9-1.8,1.2c-0.7,0.3-1.4,0.4-2.2,0.4c-0.8,0-1.5-0.1-2.1-0.4c-0.7-0.3-1.3-0.7-1.8-1.2c-0.5-0.5-0.9-1.1-1.2-1.8
		c-0.3-0.7-0.4-1.4-0.4-2.2c0-0.8,0.2-1.5,0.4-2.2c0.3-0.7,0.7-1.3,1.2-1.8c0.5-0.5,1.1-0.9,1.8-1.2s1.4-0.4,2.2-0.4
		c0.8,0,1.5,0.1,2.2,0.4s1.3,0.7,1.8,1.2c0.5,0.5,0.9,1.1,1.2,1.8s0.4,1.4,0.4,2.2C257.4,364.3,257.3,365,257,365.7z"/>
	<path class="st0" d="M281.4,359.6c-0.5-0.5-1.1-1-1.9-1.3c-0.7-0.3-1.5-0.5-2.2-0.5c-0.8,0-1.5,0.1-2.2,0.4
		c-0.7,0.3-1.3,0.7-1.8,1.2s-0.9,1.1-1.2,1.8s-0.4,1.4-0.4,2.2c0,0.8,0.1,1.5,0.4,2.2c0.3,0.7,0.7,1.3,1.2,1.8s1.1,0.9,1.8,1.2
		s1.4,0.4,2.2,0.4c0.8,0,1.5-0.1,2.2-0.4s1.3-0.7,1.9-1.2l1,1c-0.5,0.4-1,0.8-1.5,1.1c-0.6,0.3-1.1,0.6-1.7,0.7
		c-0.6,0.2-1.2,0.3-1.9,0.3c-1,0-1.9-0.2-2.8-0.5c-0.9-0.4-1.6-0.9-2.3-1.5c-0.6-0.6-1.2-1.4-1.5-2.2c-0.4-0.9-0.5-1.8-0.5-2.7
		s0.2-1.9,0.5-2.7s0.9-1.6,1.5-2.2s1.4-1.1,2.3-1.5c0.9-0.4,1.8-0.5,2.8-0.5c0.6,0,1.2,0.1,1.9,0.2c0.6,0.2,1.2,0.4,1.7,0.7
		c0.5,0.3,1,0.6,1.5,1.1L281.4,359.6z"/>
	<path class="st0" d="M297.4,360.8c-0.4-0.8-0.9-1.6-1.5-2.2c-0.7-0.6-1.4-1.1-2.3-1.5c-0.9-0.4-1.8-0.5-2.8-0.5
		c-1,0-1.9,0.2-2.8,0.5c-0.9,0.3-1.6,0.8-2.3,1.5c-0.6,0.6-1.2,1.4-1.5,2.2c-0.4,0.8-0.6,1.8-0.6,2.7s0.2,1.9,0.6,2.7
		c0.4,0.9,0.9,1.6,1.5,2.2c0.7,0.6,1.4,1.1,2.3,1.5c0.9,0.4,1.8,0.5,2.8,0.5c1,0,1.9-0.2,2.8-0.5c0.9-0.4,1.6-0.9,2.3-1.5
		c0.7-0.6,1.2-1.4,1.5-2.2c0.4-0.8,0.6-1.8,0.6-2.7S297.8,361.6,297.4,360.8z M295.9,365.7c-0.3,0.7-0.7,1.3-1.2,1.8
		c-0.5,0.5-1.1,0.9-1.8,1.2c-0.7,0.3-1.4,0.4-2.2,0.4c-0.8,0-1.5-0.1-2.1-0.4c-0.7-0.3-1.3-0.7-1.8-1.2c-0.5-0.5-0.9-1.1-1.2-1.8
		c-0.3-0.7-0.4-1.4-0.4-2.2c0-0.8,0.2-1.5,0.4-2.2c0.3-0.7,0.7-1.3,1.2-1.8c0.5-0.5,1.1-0.9,1.8-1.2s1.4-0.4,2.2-0.4
		c0.8,0,1.5,0.1,2.2,0.4c0.7,0.3,1.3,0.7,1.8,1.2c0.5,0.5,0.9,1.1,1.2,1.8s0.4,1.4,0.4,2.2C296.4,364.3,296.2,365,295.9,365.7z"/>
	<path class="st0" d="M300.8,356.6h1.6l8.7,11.9l-0.4,0.1v-12h1.5v13.7h-1.6l-8.7-11.9l0.4-0.1v12h-1.6V356.6z"/>
	<path class="st0" d="M316.5,356.6h1.6l8.7,11.9l-0.4,0.1v-12h1.5v13.7h-1.6l-8.7-11.9l0.4-0.1v12h-1.6V356.6z"/>
	<path class="st0" d="M332.1,356.6h9.3v1.4h-7.8v4.7h6.9v1.4h-6.9v5h8v1.4h-9.6L332.1,356.6L332.1,356.6z"/>
	<path class="st0" d="M354.8,359.6c-0.5-0.5-1.1-1-1.9-1.3c-0.7-0.3-1.5-0.5-2.2-0.5c-0.8,0-1.5,0.1-2.2,0.4
		c-0.7,0.3-1.3,0.7-1.8,1.2s-0.9,1.1-1.2,1.8s-0.4,1.4-0.4,2.2c0,0.8,0.1,1.5,0.4,2.2c0.3,0.7,0.7,1.3,1.2,1.8s1.1,0.9,1.8,1.2
		s1.4,0.4,2.2,0.4c0.8,0,1.5-0.1,2.2-0.4s1.3-0.7,1.9-1.2l1,1c-0.5,0.4-1,0.8-1.5,1.1c-0.6,0.3-1.1,0.6-1.7,0.7
		c-0.6,0.2-1.2,0.3-1.9,0.3c-1,0-1.9-0.2-2.8-0.5c-0.9-0.4-1.6-0.9-2.3-1.5c-0.6-0.6-1.2-1.4-1.5-2.2c-0.4-0.9-0.5-1.8-0.5-2.7
		s0.2-1.9,0.5-2.7s0.9-1.6,1.5-2.2s1.4-1.1,2.3-1.5c0.9-0.4,1.8-0.5,2.8-0.5c0.6,0,1.2,0.1,1.9,0.2c0.6,0.2,1.2,0.4,1.7,0.7
		c0.5,0.3,1,0.6,1.5,1.1L354.8,359.6z"/>
	<path class="st0" d="M356.7,356.6h10.5v1.4h-4.5v12.4h-1.6V358h-4.5L356.7,356.6L356.7,356.6z"/>
</g>
</svg>
