<?xml version="1.0" encoding="utf-8"?>
<!-- Generator: Adobe Illustrator 25.2.1, SVG Export Plug-In . SVG Version: 6.00 Build 0)  -->
<svg version="1.1" id="Layer_1" xmlns="http://www.w3.org/2000/svg" xmlns:xlink="http://www.w3.org/1999/xlink" x="0px" y="0px"
	 viewBox="0 0 566.93 566.93" style="enable-background:new 0 0 566.93 566.93;" xml:space="preserve">
<style type="text/css">
	.st0{fill:#06204F;}
	.st1{fill:#FFFFFF;}
	.st2{fill:#C50002;}
	.st3{fill:#FFFFFF;stroke:#1D1D1B;stroke-width:0.25;stroke-miterlimit:10;}
</style>
<path class="st0" d="M70.9,206.74H44.92v113.13h27.59v-68.24l49.7,68.14v-44.51L70.9,206.74z"/>
<path class="st0" d="M144.3,206.74v23.32h29.53v-0.08h59.7v-23.24H144.3z M144.28,253.11v20.09h25.68v-0.02h46.86v-20.07H144.28z
	 M144.3,296.63v23.24h89.23v-23.24H144.3z"/>
<g>
	<circle class="st0" cx="454" cy="265.08" r="80.8"/>
	<g>
		<g>
			<path class="st1" d="M489.25,268.71l4.08,2.36c3.66,2.11,6.72,4.86,9.14,8.02c2.51,3.29,4.34,7.02,5.39,10.96
				c1.05,3.93,1.35,8.08,0.81,12.19c-0.52,3.95-1.8,7.86-3.91,11.52c-2.11,3.66-4.86,6.73-8.02,9.14c-3.29,2.52-7.03,4.33-10.97,5.4
				c-3.94,1.05-8.08,1.34-12.19,0.8c-3.95-0.51-7.87-1.8-11.52-3.91h0.01l-25-14.43c3.7-0.79,6.78-1.56,10.29-3.15
				c2.31-1.04,4.53-2.29,6.62-3.74l0.64-0.45l0.68,0.39l14.33,8.27h0.01c1.88,1.09,3.9,1.74,5.92,2.01
				c2.12,0.27,4.26,0.13,6.31-0.42c2.04-0.55,3.97-1.49,5.67-2.78c1.63-1.24,3.05-2.82,4.13-4.7h0.01c1.08-1.88,1.74-3.9,2.01-5.92
				c0.27-2.12,0.12-4.26-0.43-6.31c-0.54-2.04-1.48-3.96-2.78-5.66c-1.25-1.63-2.82-3.05-4.7-4.14l-13.57-7.84l-0.72-0.41l0.11-0.81
				c0.02-0.14,0.04-0.34,0.08-0.64l0.06-0.55v-13.2v-2.15l1.87,1.08l15.03,8.68l0.63,0.36V268.71z M414.19,240.67v16.51v12.49
				c0,2.18,0.44,4.25,1.23,6.14c0.82,1.97,2.02,3.75,3.51,5.24h0.01c1.49,1.5,3.27,2.7,5.24,3.52c1.89,0.79,3.97,1.23,6.14,1.23
				c2.18,0,4.25-0.44,6.14-1.23c1.97-0.81,3.75-2.02,5.24-3.52h0.01c1.49-1.49,2.7-3.27,3.51-5.24c0.79-1.89,1.23-3.96,1.23-6.14
				v-8.95v-14.6v-1.64c0-4.22,0.85-8.24,2.38-11.93c1.59-3.83,3.92-7.28,6.8-10.15c2.88-2.88,6.32-5.21,10.15-6.8
				c3.68-1.53,7.71-2.38,11.93-2.38c4.22,0,8.25,0.85,11.93,2.38c3.83,1.59,7.28,3.92,10.16,6.8c2.88,2.88,5.21,6.32,6.79,10.15
				c1.54,3.68,2.38,7.71,2.38,11.93v23.04v2.95l-2.11-2.07c-1.25-1.22-2.57-2.37-3.95-3.42c-1.38-1.04-2.84-2.01-4.35-2.89
				l-4.09-2.37l-0.62-0.36v-0.71v-14.17c0-2.18-0.43-4.25-1.23-6.14c-0.82-1.97-2.03-3.75-3.52-5.24v0.01
				c-2.93-2.93-6.95-4.74-11.38-4.74c-2.17,0-4.25,0.44-6.14,1.23c-1.96,0.81-3.74,2.02-5.24,3.52l-0.01-0.01
				c-1.49,1.5-2.69,3.27-3.51,5.24c-0.79,1.89-1.23,3.96-1.23,6.14v8.95v14.6v1.64c0,4.22-0.85,8.25-2.38,11.93
				c-1.59,3.83-3.91,7.28-6.8,10.15c-2.88,2.89-6.32,5.21-10.15,6.79c-3.68,1.54-7.71,2.38-11.93,2.38s-8.25-0.85-11.93-2.38
				c-3.83-1.58-7.28-3.91-10.15-6.79c-2.89-2.88-5.21-6.32-6.8-10.15c-1.53-3.68-2.38-7.71-2.38-11.93v-36.3v-14.09v-0.01v-0.01
				v-0.01v-0.01v-0.01v-0.01v-0.01v-0.01v-0.01v-0.01v-0.01v-0.01v-0.42v-2.14l1.86,1.07l12.65,7.31l0.63,0.36v0.71V240.67z"/>
		</g>
	</g>
</g>
<polygon class="st2" points="328.02,262.47 367.25,319.87 335.18,319.87 311.4,286.05 287.57,319.87 255.62,319.87 294.7,262.31 
	255.62,206.74 289.94,206.74 311.26,237.94 332.44,206.74 367.29,206.74 "/>
<g>
	<path class="st0" d="M52.68,328.93c1.25,0,2.31,0.18,3.2,0.55c0.89,0.37,1.57,0.9,2.04,1.58c0.47,0.68,0.71,1.51,0.71,2.47
		c0,1.07-0.3,1.98-0.89,2.72c-0.6,0.75-1.42,1.22-2.47,1.43c1.32,0.19,2.34,0.7,3.08,1.53c0.74,0.82,1.11,1.87,1.11,3.13
		c0,1.05-0.26,1.95-0.79,2.7c-0.53,0.75-1.29,1.32-2.28,1.71c-0.99,0.39-2.19,0.59-3.59,0.59h-7.87v-18.43H52.68z M52.57,336.96
		c1.23,0,2.19-0.27,2.88-0.82c0.69-0.54,1.04-1.32,1.04-2.32c0-0.98-0.35-1.74-1.04-2.28c-0.69-0.53-1.65-0.79-2.88-0.78h-5.55v6.19
		H52.57z M52.57,345.54c1.49,0,2.65-0.3,3.49-0.89c0.83-0.6,1.25-1.44,1.25-2.53c0-1.05-0.42-1.87-1.25-2.46
		c-0.83-0.59-2-0.88-3.49-0.88h-5.55v6.76H52.57z"/>
	<path class="st0" d="M77.03,339.85c0,1.84,0.5,3.28,1.5,4.3c1,1.03,2.37,1.54,4.11,1.54c1.74,0,3.1-0.51,4.09-1.53
		c0.99-1.02,1.49-2.46,1.49-4.32v-10.92h2.08v10.92c0,1.6-0.3,2.97-0.91,4.12c-0.61,1.15-1.48,2.03-2.63,2.63
		c-1.15,0.61-2.52,0.91-4.12,0.91c-1.6,0-2.97-0.3-4.13-0.91c-1.16-0.61-2.04-1.48-2.66-2.63c-0.61-1.15-0.92-2.52-0.92-4.12v-10.92
		h2.11V339.85z"/>
	<path class="st0" d="M117.48,332.19c-0.54-0.37-1.12-0.66-1.72-0.88c-0.61-0.22-1.19-0.38-1.76-0.49c-0.57-0.11-1.1-0.16-1.59-0.16
		c-1.19,0-2.15,0.24-2.86,0.71c-0.71,0.47-1.07,1.12-1.07,1.95c0,0.72,0.19,1.3,0.57,1.74c0.38,0.44,0.87,0.8,1.49,1.08
		c0.61,0.28,1.29,0.53,2.03,0.75c0.74,0.22,1.47,0.46,2.21,0.71c0.74,0.25,1.41,0.58,2.03,0.97c0.61,0.39,1.11,0.9,1.47,1.53
		s0.55,1.42,0.55,2.38c0,1.02-0.28,1.9-0.84,2.65c-0.56,0.75-1.34,1.33-2.34,1.74c-1,0.41-2.16,0.62-3.47,0.62
		c-0.89,0-1.77-0.12-2.63-0.36c-0.86-0.24-1.67-0.57-2.42-0.99c-0.75-0.42-1.42-0.9-2-1.45l0.95-1.71c0.58,0.54,1.21,1.01,1.9,1.4
		c0.68,0.39,1.39,0.68,2.12,0.9c0.73,0.21,1.43,0.32,2.12,0.32c1.33,0,2.39-0.27,3.16-0.82c0.77-0.54,1.16-1.28,1.16-2.21
		c0-0.72-0.18-1.31-0.55-1.76c-0.37-0.46-0.86-0.82-1.47-1.11c-0.61-0.28-1.29-0.53-2.03-0.74c-0.74-0.21-1.48-0.44-2.22-0.7
		c-0.75-0.25-1.43-0.57-2.04-0.95c-0.61-0.38-1.11-0.87-1.47-1.49c-0.37-0.61-0.55-1.39-0.55-2.34c0-0.96,0.26-1.8,0.79-2.5
		c0.53-0.7,1.27-1.25,2.24-1.64c0.96-0.4,2.08-0.59,3.34-0.59c1.07,0,2.12,0.16,3.15,0.47c1.03,0.32,1.93,0.72,2.7,1.21
		L117.48,332.19z"/>
	<path class="st0" d="M134.72,328.93h2.11v18.43h-2.11V328.93z"/>
	<path class="st0" d="M153.99,328.93h2.18l11.61,15.95l-0.55,0.18v-16.14h2.08v18.43h-2.16l-11.61-15.92l0.55-0.18v16.11h-2.11
		V328.93z"/>
	<path class="st0" d="M186.5,328.93H199v1.84h-10.4v6.32h9.29v1.82h-9.29v6.63h10.74v1.82H186.5V328.93z"/>
	<path class="st0" d="M225.64,332.19c-0.54-0.37-1.12-0.66-1.72-0.88c-0.61-0.22-1.19-0.38-1.76-0.49c-0.57-0.11-1.1-0.16-1.59-0.16
		c-1.19,0-2.15,0.24-2.86,0.71c-0.71,0.47-1.07,1.12-1.07,1.95c0,0.72,0.19,1.3,0.57,1.74c0.38,0.44,0.87,0.8,1.49,1.08
		c0.61,0.28,1.29,0.53,2.03,0.75c0.74,0.22,1.47,0.46,2.21,0.71c0.74,0.25,1.41,0.58,2.03,0.97c0.61,0.39,1.11,0.9,1.47,1.53
		s0.55,1.42,0.55,2.38c0,1.02-0.28,1.9-0.84,2.65c-0.56,0.75-1.34,1.33-2.34,1.74c-1,0.41-2.16,0.62-3.47,0.62
		c-0.89,0-1.77-0.12-2.63-0.36c-0.86-0.24-1.67-0.57-2.42-0.99c-0.75-0.42-1.42-0.9-2-1.45l0.95-1.71c0.58,0.54,1.21,1.01,1.9,1.4
		s1.39,0.68,2.12,0.9c0.73,0.21,1.43,0.32,2.12,0.32c1.33,0,2.39-0.27,3.16-0.82c0.77-0.54,1.16-1.28,1.16-2.21
		c0-0.72-0.18-1.31-0.55-1.76c-0.37-0.46-0.86-0.82-1.47-1.11c-0.61-0.28-1.29-0.53-2.03-0.74s-1.48-0.44-2.22-0.7
		c-0.75-0.25-1.43-0.57-2.04-0.95c-0.61-0.38-1.11-0.87-1.47-1.49c-0.37-0.61-0.55-1.39-0.55-2.34c0-0.96,0.26-1.8,0.79-2.5
		c0.53-0.7,1.27-1.25,2.24-1.64c0.96-0.4,2.08-0.59,3.34-0.59c1.07,0,2.12,0.16,3.15,0.47c1.03,0.32,1.93,0.72,2.7,1.21
		L225.64,332.19z"/>
	<path class="st0" d="M253.3,332.19c-0.54-0.37-1.12-0.66-1.72-0.88c-0.61-0.22-1.19-0.38-1.76-0.49c-0.57-0.11-1.1-0.16-1.59-0.16
		c-1.19,0-2.15,0.24-2.86,0.71c-0.71,0.47-1.07,1.12-1.07,1.95c0,0.72,0.19,1.3,0.57,1.74c0.38,0.44,0.87,0.8,1.49,1.08
		c0.61,0.28,1.29,0.53,2.03,0.75c0.74,0.22,1.47,0.46,2.21,0.71c0.74,0.25,1.41,0.58,2.03,0.97c0.61,0.39,1.11,0.9,1.47,1.53
		c0.37,0.62,0.55,1.42,0.55,2.38c0,1.02-0.28,1.9-0.84,2.65c-0.56,0.75-1.34,1.33-2.34,1.74c-1,0.41-2.16,0.62-3.47,0.62
		c-0.89,0-1.77-0.12-2.63-0.36c-0.86-0.24-1.67-0.57-2.42-0.99c-0.75-0.42-1.42-0.9-2-1.45l0.95-1.71c0.58,0.54,1.21,1.01,1.9,1.4
		s1.39,0.68,2.12,0.9c0.73,0.21,1.43,0.32,2.12,0.32c1.33,0,2.39-0.27,3.16-0.82c0.77-0.54,1.16-1.28,1.16-2.21
		c0-0.72-0.18-1.31-0.55-1.76c-0.37-0.46-0.86-0.82-1.47-1.11c-0.61-0.28-1.29-0.53-2.03-0.74s-1.48-0.44-2.22-0.7
		c-0.75-0.25-1.43-0.57-2.04-0.95c-0.61-0.38-1.11-0.87-1.47-1.49c-0.37-0.61-0.55-1.39-0.55-2.34c0-0.96,0.26-1.8,0.79-2.5
		c0.53-0.7,1.27-1.25,2.24-1.64c0.96-0.4,2.08-0.59,3.34-0.59c1.07,0,2.12,0.16,3.15,0.47c1.03,0.32,1.93,0.72,2.7,1.21
		L253.3,332.19z"/>
	<path class="st0" d="M288.52,328.93h2.11v8.4h11.11v-8.4h2.11v18.43h-2.11v-8.21h-11.11v8.21h-2.11V328.93z"/>
	<path class="st0" d="M322.69,339.85c0,1.84,0.5,3.28,1.5,4.3c1,1.03,2.37,1.54,4.11,1.54s3.1-0.51,4.09-1.53
		c0.99-1.02,1.49-2.46,1.49-4.32v-10.92h2.08v10.92c0,1.6-0.3,2.97-0.91,4.12c-0.61,1.15-1.48,2.03-2.63,2.63
		c-1.15,0.61-2.52,0.91-4.12,0.91c-1.6,0-2.97-0.3-4.13-0.91c-1.16-0.61-2.04-1.48-2.66-2.63c-0.61-1.15-0.92-2.52-0.92-4.12v-10.92
		h2.11V339.85z"/>
	<path class="st0" d="M360.49,328.93c1.25,0,2.31,0.18,3.2,0.55c0.89,0.37,1.57,0.9,2.04,1.58c0.47,0.68,0.71,1.51,0.71,2.47
		c0,1.07-0.3,1.98-0.89,2.72c-0.6,0.75-1.42,1.22-2.47,1.43c1.32,0.19,2.34,0.7,3.08,1.53c0.74,0.82,1.11,1.87,1.11,3.13
		c0,1.05-0.26,1.95-0.79,2.7c-0.53,0.75-1.29,1.32-2.28,1.71c-0.99,0.39-2.19,0.59-3.59,0.59h-7.87v-18.43H360.49z M360.38,336.96
		c1.23,0,2.19-0.27,2.88-0.82c0.69-0.54,1.04-1.32,1.04-2.32c0-0.98-0.35-1.74-1.04-2.28c-0.69-0.53-1.65-0.79-2.88-0.78h-5.55v6.19
		H360.38z M360.38,345.54c1.49,0,2.65-0.3,3.49-0.89c0.83-0.6,1.25-1.44,1.25-2.53c0-1.05-0.42-1.87-1.25-2.46
		c-0.83-0.59-2-0.88-3.49-0.88h-5.55v6.76H360.38z"/>
</g>
<g>
	<path class="st0" d="M44.9,356.65h1.57v13.74H44.9V356.65z"/>
	<path class="st0" d="M50.64,356.65h1.63l8.66,11.9l-0.41,0.14v-12.03h1.55v13.74h-1.61l-8.66-11.88l0.41-0.14v12.01h-1.57V356.65z"
		/>
	<path class="st0" d="M66.24,356.65h1.63l8.66,11.9l-0.41,0.14v-12.03h1.55v13.74h-1.61l-8.66-11.88l0.41-0.14v12.01h-1.57V356.65z"
		/>
	<path class="st0" d="M87.76,356.55c0.99,0,1.93,0.18,2.8,0.53c0.87,0.35,1.63,0.85,2.29,1.49c0.65,0.64,1.17,1.38,1.54,2.22
		c0.37,0.84,0.56,1.74,0.56,2.71c0,0.97-0.19,1.88-0.56,2.73c-0.37,0.85-0.89,1.6-1.54,2.24c-0.65,0.64-1.42,1.14-2.29,1.5
		c-0.87,0.36-1.8,0.54-2.8,0.54c-1.01,0-1.95-0.18-2.82-0.54c-0.87-0.36-1.63-0.86-2.29-1.5c-0.65-0.64-1.17-1.39-1.54-2.24
		c-0.37-0.85-0.56-1.76-0.56-2.73c0-0.97,0.19-1.87,0.56-2.72c0.37-0.84,0.89-1.58,1.54-2.22c0.65-0.63,1.42-1.13,2.29-1.48
		C85.81,356.73,86.75,356.55,87.76,356.55z M87.76,357.89c-0.77,0-1.5,0.14-2.17,0.43c-0.67,0.29-1.27,0.69-1.79,1.21
		c-0.52,0.52-0.92,1.12-1.22,1.8c-0.29,0.68-0.44,1.41-0.44,2.18c0,0.79,0.15,1.52,0.44,2.2c0.29,0.68,0.7,1.28,1.23,1.81
		c0.52,0.52,1.12,0.93,1.8,1.22c0.67,0.29,1.39,0.43,2.15,0.43c0.77,0,1.49-0.14,2.17-0.43c0.67-0.29,1.27-0.69,1.78-1.22
		c0.51-0.52,0.91-1.13,1.2-1.81c0.29-0.68,0.43-1.41,0.43-2.2c0-0.77-0.14-1.5-0.43-2.18c-0.29-0.68-0.69-1.28-1.2-1.8
		c-0.51-0.52-1.1-0.92-1.78-1.21C89.25,358.03,88.53,357.89,87.76,357.89z"/>
	<path class="st0" d="M95.65,356.65h1.69l4.73,12.07l4.75-12.07h1.65l-5.61,13.74h-1.63L95.65,356.65z"/>
	<path class="st0" d="M113.87,356.65h1.61l6.14,13.74h-1.69l-5.3-12.13l-5.26,12.13h-1.65L113.87,356.65z M110.43,365.46h8.34v1.35
		h-8.34V365.46z"/>
	<path class="st0" d="M120.58,356.65h10.54v1.37h-4.5v12.37h-1.57v-12.37h-4.48V356.65z"/>
	<path class="st0" d="M133.4,356.65h1.57v13.74h-1.57V356.65z"/>
	<path class="st0" d="M137.17,356.65h1.69l4.73,12.07l4.75-12.07h1.65l-5.61,13.74h-1.63L137.17,356.65z"/>
	<path class="st0" d="M152.18,356.65h9.32v1.37h-7.75v4.71h6.93v1.35h-6.93v4.95h8.01v1.35h-9.58V356.65z"/>
	<path class="st0" d="M182.28,359.08c-0.41-0.27-0.83-0.49-1.29-0.66c-0.45-0.16-0.89-0.28-1.32-0.36
		c-0.43-0.08-0.82-0.12-1.19-0.12c-0.89,0-1.6,0.18-2.13,0.53c-0.53,0.35-0.8,0.84-0.8,1.45c0,0.54,0.14,0.97,0.42,1.3
		c0.28,0.33,0.65,0.6,1.11,0.81c0.46,0.21,0.96,0.4,1.51,0.56c0.55,0.16,1.1,0.34,1.65,0.53c0.55,0.19,1.05,0.43,1.51,0.73
		c0.46,0.29,0.82,0.67,1.1,1.14c0.27,0.47,0.41,1.06,0.41,1.78c0,0.76-0.21,1.42-0.63,1.97c-0.42,0.56-1,0.99-1.75,1.3
		c-0.75,0.31-1.61,0.46-2.59,0.46c-0.67,0-1.32-0.09-1.96-0.27c-0.64-0.18-1.24-0.42-1.81-0.74c-0.56-0.31-1.06-0.67-1.49-1.08
		l0.71-1.28c0.43,0.41,0.9,0.75,1.41,1.04c0.51,0.29,1.04,0.51,1.58,0.67c0.54,0.16,1.07,0.24,1.58,0.24c0.99,0,1.78-0.2,2.36-0.61
		c0.58-0.41,0.86-0.96,0.86-1.65c0-0.54-0.14-0.98-0.41-1.32c-0.28-0.34-0.64-0.62-1.1-0.82c-0.46-0.21-0.96-0.39-1.51-0.55
		c-0.55-0.16-1.1-0.33-1.66-0.52c-0.56-0.19-1.06-0.43-1.52-0.71c-0.46-0.28-0.82-0.65-1.1-1.11c-0.27-0.46-0.41-1.04-0.41-1.75
		c0-0.72,0.2-1.34,0.59-1.86c0.39-0.52,0.95-0.93,1.67-1.23c0.72-0.29,1.55-0.44,2.49-0.44c0.8,0,1.58,0.12,2.35,0.35
		c0.77,0.24,1.44,0.54,2.01,0.9L182.28,359.08z"/>
	<path class="st0" d="M191.66,356.65c1.7,0,3.02,0.4,3.96,1.21c0.94,0.8,1.4,1.93,1.4,3.39c0,1.51-0.47,2.67-1.4,3.5
		c-0.94,0.83-2.25,1.25-3.96,1.25h-4.28l0.69-0.69v5.08h-1.57v-13.74H191.66z M191.6,364.64c1.24,0,2.21-0.28,2.89-0.85
		s1.02-1.4,1.02-2.5c0-1.07-0.34-1.88-1.02-2.43s-1.64-0.82-2.89-0.82h-4.22l0.69-0.69v7.99l-0.69-0.69H191.6z"/>
	<path class="st0" d="M205.54,356.55c0.99,0,1.93,0.18,2.8,0.53c0.87,0.35,1.63,0.85,2.29,1.49c0.65,0.64,1.17,1.38,1.54,2.22
		c0.37,0.84,0.56,1.74,0.56,2.71c0,0.97-0.19,1.88-0.56,2.73c-0.37,0.85-0.89,1.6-1.54,2.24c-0.65,0.64-1.42,1.14-2.29,1.5
		c-0.87,0.36-1.8,0.54-2.8,0.54c-1.01,0-1.95-0.18-2.82-0.54c-0.87-0.36-1.63-0.86-2.29-1.5c-0.65-0.64-1.17-1.39-1.54-2.24
		c-0.37-0.85-0.56-1.76-0.56-2.73c0-0.97,0.19-1.87,0.56-2.72c0.37-0.84,0.89-1.58,1.54-2.22c0.65-0.63,1.42-1.13,2.29-1.48
		C203.59,356.73,204.53,356.55,205.54,356.55z M205.54,357.89c-0.77,0-1.5,0.14-2.17,0.43c-0.67,0.29-1.27,0.69-1.79,1.21
		c-0.52,0.52-0.92,1.12-1.22,1.8c-0.29,0.68-0.44,1.41-0.44,2.18c0,0.79,0.15,1.52,0.44,2.2c0.29,0.68,0.7,1.28,1.23,1.81
		c0.52,0.52,1.12,0.93,1.8,1.22c0.67,0.29,1.39,0.43,2.15,0.43c0.77,0,1.49-0.14,2.17-0.43c0.67-0.29,1.27-0.69,1.78-1.22
		c0.51-0.52,0.91-1.13,1.2-1.81c0.29-0.68,0.43-1.41,0.43-2.2c0-0.77-0.14-1.5-0.43-2.18c-0.29-0.68-0.69-1.28-1.2-1.8
		c-0.51-0.52-1.1-0.92-1.78-1.21C207.03,358.03,206.31,357.89,205.54,357.89z"/>
	<path class="st0" d="M213.45,356.65h10.54v1.37h-4.5v12.37h-1.57v-12.37h-4.48V356.65z"/>
	<path class="st0" d="M233.94,356.65h10.54v1.37h-4.5v12.37h-1.57v-12.37h-4.48V356.65z"/>
	<path class="st0" d="M251.85,356.55c0.99,0,1.93,0.18,2.8,0.53c0.87,0.35,1.63,0.85,2.29,1.49c0.65,0.64,1.17,1.38,1.54,2.22
		c0.37,0.84,0.56,1.74,0.56,2.71c0,0.97-0.19,1.88-0.56,2.73c-0.37,0.85-0.89,1.6-1.54,2.24c-0.65,0.64-1.42,1.14-2.29,1.5
		c-0.87,0.36-1.8,0.54-2.8,0.54c-1.01,0-1.95-0.18-2.82-0.54c-0.87-0.36-1.63-0.86-2.29-1.5c-0.65-0.64-1.17-1.39-1.54-2.24
		c-0.37-0.85-0.56-1.76-0.56-2.73c0-0.97,0.19-1.87,0.56-2.72c0.37-0.84,0.89-1.58,1.54-2.22c0.65-0.63,1.42-1.13,2.29-1.48
		C249.9,356.73,250.84,356.55,251.85,356.55z M251.85,357.89c-0.77,0-1.5,0.14-2.17,0.43c-0.67,0.29-1.27,0.69-1.79,1.21
		c-0.52,0.52-0.92,1.12-1.22,1.8c-0.29,0.68-0.44,1.41-0.44,2.18c0,0.79,0.15,1.52,0.44,2.2c0.29,0.68,0.7,1.28,1.23,1.81
		c0.52,0.52,1.12,0.93,1.8,1.22c0.67,0.29,1.39,0.43,2.15,0.43c0.77,0,1.49-0.14,2.17-0.43c0.67-0.29,1.27-0.69,1.78-1.22
		c0.51-0.52,0.91-1.13,1.2-1.81c0.29-0.68,0.43-1.41,0.43-2.2c0-0.77-0.14-1.5-0.43-2.18c-0.29-0.68-0.69-1.28-1.2-1.8
		c-0.51-0.52-1.1-0.92-1.78-1.21C253.34,358.03,252.62,357.89,251.85,357.89z"/>
	<path class="st0" d="M281.39,359.59c-0.52-0.54-1.14-0.96-1.86-1.27c-0.71-0.31-1.45-0.46-2.21-0.46c-0.77,0-1.5,0.14-2.18,0.43
		c-0.68,0.29-1.28,0.69-1.79,1.21c-0.51,0.52-0.91,1.12-1.2,1.8c-0.29,0.68-0.43,1.41-0.43,2.2c0,0.77,0.14,1.5,0.43,2.18
		c0.29,0.68,0.69,1.28,1.2,1.79c0.51,0.51,1.11,0.91,1.79,1.21s1.41,0.44,2.18,0.44c0.76,0,1.49-0.15,2.19-0.44s1.33-0.7,1.87-1.23
		l0.96,0.98c-0.45,0.42-0.95,0.79-1.5,1.1c-0.56,0.31-1.14,0.56-1.74,0.73c-0.6,0.17-1.22,0.26-1.86,0.26
		c-0.99,0-1.92-0.18-2.78-0.54c-0.86-0.36-1.61-0.86-2.26-1.5c-0.65-0.64-1.16-1.39-1.52-2.24c-0.37-0.85-0.55-1.76-0.55-2.73
		c0-0.97,0.18-1.87,0.55-2.71c0.37-0.84,0.88-1.58,1.53-2.22c0.65-0.64,1.41-1.14,2.28-1.49c0.86-0.35,1.8-0.53,2.81-0.53
		c0.63,0,1.24,0.08,1.85,0.24c0.6,0.16,1.17,0.38,1.71,0.68c0.54,0.29,1.03,0.65,1.47,1.07L281.39,359.59z"/>
	<path class="st0" d="M290.79,356.55c0.99,0,1.93,0.18,2.8,0.53c0.87,0.35,1.63,0.85,2.29,1.49c0.65,0.64,1.17,1.38,1.54,2.22
		c0.37,0.84,0.56,1.74,0.56,2.71c0,0.97-0.19,1.88-0.56,2.73c-0.37,0.85-0.89,1.6-1.54,2.24c-0.65,0.64-1.42,1.14-2.29,1.5
		c-0.87,0.36-1.8,0.54-2.8,0.54c-1.01,0-1.95-0.18-2.82-0.54c-0.87-0.36-1.63-0.86-2.29-1.5c-0.65-0.64-1.17-1.39-1.54-2.24
		c-0.37-0.85-0.56-1.76-0.56-2.73c0-0.97,0.19-1.87,0.56-2.72c0.37-0.84,0.89-1.58,1.54-2.22c0.65-0.63,1.42-1.13,2.29-1.48
		C288.85,356.73,289.79,356.55,290.79,356.55z M290.79,357.89c-0.77,0-1.5,0.14-2.17,0.43c-0.67,0.29-1.27,0.69-1.79,1.21
		c-0.52,0.52-0.92,1.12-1.22,1.8c-0.29,0.68-0.44,1.41-0.44,2.18c0,0.79,0.15,1.52,0.44,2.2c0.29,0.68,0.7,1.28,1.23,1.81
		c0.52,0.52,1.12,0.93,1.8,1.22c0.67,0.29,1.39,0.43,2.15,0.43c0.77,0,1.49-0.14,2.17-0.43c0.67-0.29,1.27-0.69,1.78-1.22
		c0.51-0.52,0.91-1.13,1.2-1.81c0.29-0.68,0.43-1.41,0.43-2.2c0-0.77-0.14-1.5-0.43-2.18c-0.29-0.68-0.69-1.28-1.2-1.8
		c-0.51-0.52-1.1-0.92-1.78-1.21C292.29,358.03,291.56,357.89,290.79,357.89z"/>
	<path class="st0" d="M300.84,356.65h1.63l8.66,11.9l-0.41,0.14v-12.03h1.55v13.74h-1.61L302,358.51l0.41-0.14v12.01h-1.57V356.65z"
		/>
	<path class="st0" d="M316.45,356.65h1.63l8.66,11.9l-0.41,0.14v-12.03h1.55v13.74h-1.61l-8.66-11.88l0.41-0.14v12.01h-1.57V356.65z
		"/>
	<path class="st0" d="M332.06,356.65h9.32v1.37h-7.75v4.71h6.93v1.35h-6.93v4.95h8.01v1.35h-9.58V356.65z"/>
	<path class="st0" d="M354.79,359.59c-0.52-0.54-1.14-0.96-1.86-1.27c-0.71-0.31-1.45-0.46-2.21-0.46c-0.77,0-1.5,0.14-2.18,0.43
		c-0.68,0.29-1.28,0.69-1.79,1.21c-0.51,0.52-0.91,1.12-1.2,1.8c-0.29,0.68-0.43,1.41-0.43,2.2c0,0.77,0.14,1.5,0.43,2.18
		c0.29,0.68,0.69,1.28,1.2,1.79c0.51,0.51,1.11,0.91,1.79,1.21s1.41,0.44,2.18,0.44c0.76,0,1.49-0.15,2.19-0.44
		c0.7-0.29,1.33-0.7,1.87-1.23l0.96,0.98c-0.45,0.42-0.95,0.79-1.5,1.1c-0.56,0.31-1.14,0.56-1.74,0.73
		c-0.6,0.17-1.22,0.26-1.86,0.26c-0.99,0-1.92-0.18-2.78-0.54c-0.86-0.36-1.61-0.86-2.26-1.5c-0.65-0.64-1.16-1.39-1.52-2.24
		c-0.37-0.85-0.55-1.76-0.55-2.73c0-0.97,0.18-1.87,0.55-2.71c0.37-0.84,0.88-1.58,1.53-2.22c0.65-0.64,1.41-1.14,2.28-1.49
		c0.86-0.35,1.8-0.53,2.81-0.53c0.63,0,1.24,0.08,1.85,0.24c0.6,0.16,1.17,0.38,1.71,0.68c0.54,0.29,1.03,0.65,1.47,1.07
		L354.79,359.59z"/>
	<path class="st0" d="M356.71,356.65h10.54v1.37h-4.5v12.37h-1.57v-12.37h-4.48V356.65z"/>
</g>
</svg>
